# xmcd
#
# Track frame offsets:
#	150
#	11490
#	24390
#	47819
#	59924
#	75137
#	94700
#	108803
#	153552
#	167622
#	180510
#	202099
#	261546
#	281749
#	289020
#
# Disc length: 4013
#
# Revision: 2
# Processed by: cddbd v1.5.1PL0 Copyright (c) Steve Scherf et al.
# Submitted via: ExactAudioCopy v0.95a2
# Normalized: r1:DSETVAR1
#
DISCID=cb0fab0f
DTITLE=Various Artist - Blues Giants Vol. 1
DYEAR=1900
DGENRE=Blues
TTITLE0=John Lee Hooker - Boom Boom
TTITLE1=Memphis Slim - Born With The Blues
TTITLE2=BB King and His Orchestra - The Thrill Is Gone
TTITLE3=Lightnin' Slim - Rooster's Blues
TTITLE4=Billy Boy Arnold - Don't Stay Out All Night
TTITLE5=John Mayall - Road Show
TTITLE6=John Lee Hooker - Going Home
TTITLE7=Big Joe Turner - Everyday
TTITLE8=Memphis Slim - Messin' Around
TTITLE9=Jimmy Reed - Shame Shame Shame
TTITLE10=T-Bone Walker - Stormy Monday Blues
TTITLE11=Big Joe Turner - I Got A Pocket Full Of Pencils
TTITLE12=Etta James - I'd Rather Go Blind
TTITLE13=Noel Boggs and Friends - Blues Boogie
TTITLE14=Bo Diddley - Can I Go Home With You
EXTD=
EXTT0=
EXTT1=
EXTT2=
EXTT3=
EXTT4=
EXTT5=
EXTT6=
EXTT7=
EXTT8=
EXTT9=
EXTT10=
EXTT11=
EXTT12=
EXTT13=
EXTT14=
PLAYORDER=
